<svg width="67" height="67" viewBox="0 0 67 67" fill="none" xmlns="http://www.w3.org/2000/svg">
<g clip-path="url(#clip0)">
<path d="M64.0211 46.2086L46.5777 28.6373L48.5136 19.1019C49.0132 19.2969 49.5443 19.3989 50.0804 19.4027H50.0937C52.5569 19.4318 54.5772 17.4586 54.6064 14.9955C54.6356 12.5323 52.6624 10.5119 50.1992 10.4827C47.736 10.4536 45.7156 12.4268 45.6864 14.8899C45.6802 15.417 45.7674 15.941 45.9441 16.4376L35.6969 17.6882L18.9818 0.886098C18.7767 0.676883 18.4968 0.557883 18.2039 0.555542C17.9146 0.557057 17.6377 0.672201 17.4326 0.876181L14.3077 3.9834C13.8776 4.41368 13.8776 5.11115 14.3077 5.54142L15.9891 7.24709C9.475 19.2255 11.5908 34.0589 21.1943 43.7382C21.2824 43.8225 21.3846 43.8907 21.4962 43.9399C21.4268 44.3127 21.3906 44.691 21.3882 45.0704V57.8518H8.166C5.12489 57.8554 2.66032 60.32 2.65674 63.3611V65.5648C2.65674 66.1733 3.15009 66.6667 3.75859 66.6667H54.4438C55.0523 66.6667 55.5456 66.1733 55.5456 65.5648V63.3611C55.542 60.32 53.0775 57.8554 50.0364 57.8518H36.8141V52.1872C38.8855 52.6216 40.996 52.8431 43.1123 52.8483C48.1908 52.8428 53.1884 51.5768 57.6568 49.1637L59.347 50.8639C59.5521 51.0731 59.832 51.1921 60.1249 51.1945C60.4142 51.1929 60.6911 51.0778 60.8962 50.8738L64.0211 47.7666C64.4512 47.3363 64.4512 46.6388 64.0211 46.2086ZM48.5401 13.4329C49.4029 12.5745 50.7983 12.5784 51.6565 13.4413C52.5149 14.3042 52.511 15.6995 51.6481 16.5577C51.2351 16.9686 50.6761 17.1992 50.0935 17.199H50.0869C48.8699 17.1927 47.8883 16.201 47.8946 14.9839C47.8977 14.4013 48.1313 13.8437 48.5443 13.4329H48.5401ZM45.9463 20.6732L44.71 26.7587L42.2815 24.3159L45.9463 20.6732ZM44.6946 18.8099L40.7279 22.7535L37.6593 19.6683L44.6946 18.8099ZM50.0364 60.0555C51.862 60.0555 53.3419 61.5355 53.3419 63.3611V64.463H4.86044V63.3611C4.86044 61.5355 6.34037 60.0555 8.166 60.0555H50.0364ZM34.6104 55.6481V57.8518H23.5919V55.6481H34.6104ZM23.5919 53.4444V45.0704C23.5919 42.3973 26.0634 40.2222 29.1012 40.2222C32.139 40.2222 34.6104 42.3973 34.6104 45.0704V53.4444H23.5919ZM36.8141 49.9405V45.0704C36.8141 41.1819 33.3543 38.0185 29.1012 38.0185C26.3512 37.9764 23.7798 39.3761 22.3226 41.7086C13.9394 32.8791 12.0517 19.7159 17.6151 8.88623L56.0459 47.5374C50.1116 50.5562 43.3089 51.4061 36.8141 49.9405ZM60.137 48.528L58.5845 46.9666L18.1928 6.33145L16.6337 4.76902L18.1928 3.21541L34.5862 19.7013C34.5939 19.7013 34.5983 19.7156 34.606 19.7212L61.7006 46.9744L60.137 48.528Z" fill="#212121"/>
<path d="M29.111 42.4259H29.101C27.2754 42.4232 25.7933 43.9009 25.7905 45.7265C25.7878 47.5521 27.2655 49.0343 29.0911 49.037H29.101C30.9267 49.0398 32.4088 47.5621 32.4116 45.7364C32.4143 43.9108 30.9366 42.4287 29.111 42.4259ZM29.8823 46.5127C29.6748 46.719 29.3937 46.8344 29.101 46.8333C28.4925 46.8302 28.0018 46.3343 28.005 45.7258C28.0065 45.4345 28.1233 45.1557 28.3297 44.9503C28.5348 44.7463 28.8118 44.6311 29.101 44.6296C29.7095 44.6328 30.2003 45.1286 30.1971 45.7371C30.1956 46.0284 30.0788 46.3072 29.8723 46.5127H29.8823Z" fill="#2196F3"/>
</g>
<defs>
<clipPath id="clip0">
<rect width="66.1111" height="66.1111" fill="white" transform="translate(0.444336 0.555542)"/>
</clipPath>
</defs>
</svg>
