<svg width="67" height="67" viewBox="0 0 67 67" fill="none" xmlns="http://www.w3.org/2000/svg">
<g clip-path="url(#clip0)">
<path d="M66.5023 9.90215C66.3723 9.50432 66.0286 9.21353 65.6132 9.15284L61.6663 8.57875L59.9 5.00211C59.5298 4.2484 58.2946 4.2484 57.9244 5.00211L56.1581 8.57875L52.2111 9.15297C51.7957 9.21353 51.452 9.50341 51.3208 9.90228C51.192 10.3011 51.2987 10.7397 51.5996 11.0317L54.4568 13.8162L53.7825 17.7477C53.712 18.1609 53.8816 18.5785 54.2199 18.8254C54.5626 19.0744 55.0099 19.1052 55.3813 18.909L58.9117 17.0523L62.4421 18.909C62.603 18.9939 62.7804 19.0357 62.9556 19.0357C63.1837 19.0357 63.4118 18.9652 63.6036 18.8252C63.9429 18.5785 64.1126 18.1607 64.0411 17.7475L63.3668 13.8161L66.2239 11.0316C66.5232 10.7385 66.6313 10.301 66.5023 9.90215ZM61.414 12.6436C61.1551 12.8959 61.0361 13.2617 61.0978 13.6188L61.4923 15.9205L59.4252 14.8341C59.2643 14.7493 59.0881 14.7074 58.9117 14.7074C58.7354 14.7074 58.5602 14.7493 58.3982 14.8341L56.331 15.9205L56.7255 13.6188C56.7872 13.2617 56.6682 12.8971 56.4093 12.6436L54.7355 11.0129L57.0473 10.6768C57.4065 10.625 57.7161 10.3992 57.877 10.074L58.9105 7.98051L59.9441 10.074C60.1049 10.399 60.4146 10.625 60.7738 10.6768L63.0855 11.0129L61.414 12.6436Z" fill="#2196F3"/>
<path d="M54.4352 42.9539H52.2314V45.1576H54.4352V42.9539Z" fill="#2196F3"/>
<path d="M54.4352 47.3614H52.2314V49.5651H54.4352V47.3614Z" fill="#2196F3"/>
<path d="M56.6393 45.1576H54.4355V47.3614H56.6393V45.1576Z" fill="#2196F3"/>
<path d="M52.2321 45.1576H50.0283V47.3614H52.2321V45.1576Z" fill="#2196F3"/>
<path d="M46.7228 55.0745H44.519V57.2782H46.7228V55.0745Z" fill="#2196F3"/>
<path d="M46.7228 59.4819H44.519V61.6857H46.7228V59.4819Z" fill="#2196F3"/>
<path d="M48.926 57.2783H46.7222V59.482H48.926V57.2783Z" fill="#2196F3"/>
<path d="M44.5187 57.2783H42.3149V59.482H44.5187V57.2783Z" fill="#2196F3"/>
<path d="M33.4997 50.6671H31.2959V52.8708H33.4997V50.6671Z" fill="#2196F3"/>
<path d="M33.4997 55.0745H31.2959V57.2782H33.4997V55.0745Z" fill="#2196F3"/>
<path d="M35.7038 52.8707H33.5V55.0745H35.7038V52.8707Z" fill="#2196F3"/>
<path d="M31.2961 52.8707H29.0923V55.0745H31.2961V52.8707Z" fill="#2196F3"/>
<path d="M12.5646 13.2034H10.3608V15.4072H12.5646V13.2034Z" fill="#2196F3"/>
<path d="M12.5646 17.611H10.3608V19.8147H12.5646V17.611Z" fill="#2196F3"/>
<path d="M14.7682 15.4072H12.5645V17.6109H14.7682V15.4072Z" fill="#2196F3"/>
<path d="M10.3605 15.4072H8.15674V17.6109H10.3605V15.4072Z" fill="#2196F3"/>
<path d="M51.5043 29.8086C50.9105 29.0075 50.0389 28.4919 49.0494 28.353C48.0555 28.212 47.0748 28.473 46.2815 29.0802L43.6953 31.0624L43.6942 31.0636L39.7737 33.9912L36.9683 32.8739C41.9707 30.6294 45.4671 25.6258 45.4671 19.8167C45.4671 11.9185 39.0156 5.49249 31.0855 5.49249C23.1554 5.49249 16.704 11.9185 16.704 19.8167C16.704 22.6795 17.5601 25.3415 19.0179 27.5816L13.308 27.532C13.3047 27.532 13.3014 27.532 13.2981 27.532C13.2804 27.532 13.2662 27.5408 13.2497 27.5419C13.1406 27.5463 13.0336 27.5684 12.929 27.6058C12.9026 27.6158 12.8751 27.6213 12.8498 27.6333C12.8366 27.6389 12.8233 27.6399 12.8101 27.6465L6.1306 30.9444C6.12944 30.9444 6.1284 30.9444 6.1284 30.9454L2.21668 32.8265C2.17368 32.8452 2.12965 32.8705 2.08665 32.8992C0.527465 33.9371 -0.00362727 35.9756 0.850407 37.6416C1.30544 38.5275 2.08007 39.1798 3.03211 39.4784C3.39908 39.5929 3.77367 39.6492 4.14607 39.6492C4.74444 39.6492 5.33725 39.5027 5.88035 39.2129L8.74745 37.6879L13.4249 35.2726L16.2281 35.2561L4.98564 46.4446C4.98461 46.4457 4.98345 46.4457 4.98229 46.4468L2.21655 49.2014C1.56318 49.8515 1.20395 50.7142 1.20395 51.6344C1.20395 52.5534 1.56318 53.4182 2.21655 54.0695C2.88762 54.7372 3.77019 55.0722 4.65276 55.0722C5.53649 55.0722 6.4179 54.7372 7.09116 54.0695L9.80615 51.3655L13.4027 48.6802L15.2638 50.5336L11.6242 54.1576C11.6232 54.1588 11.622 54.1588 11.6209 54.1598L8.85514 56.9144C8.20177 57.5646 7.84254 58.4273 7.84254 59.3474C7.84254 60.2664 8.20177 61.1313 8.85514 61.7826C9.52621 62.4503 10.4099 62.7852 11.2925 62.7852C12.1751 62.7852 13.0588 62.4503 13.7309 61.7826L16.4977 59.028L20.9238 54.6205C20.925 54.6194 20.925 54.6183 20.926 54.6172L23.0119 52.5512L23.0042 52.5434C23.0173 52.5302 23.0361 52.5257 23.0494 52.5115L33.7221 40.8218L40.8931 41.8422C40.9448 41.8499 40.9966 41.8531 41.0484 41.8531C41.1818 41.8531 41.3107 41.8212 41.4351 41.7738C41.4715 41.7607 41.5034 41.743 41.5377 41.7254C41.5773 41.7055 41.6191 41.6946 41.6567 41.6693L48.2954 37.2618C48.3197 37.2453 48.3329 37.2188 48.356 37.2013C48.3825 37.1803 48.4155 37.1716 48.4397 37.1483L51.0665 34.6878C52.4333 33.4072 52.6216 31.3093 51.5043 29.8086ZM4.84567 37.2681C4.48761 37.4599 4.08099 37.4984 3.69207 37.3751C3.30637 37.255 2.9935 36.9916 2.81053 36.6357C2.47777 35.9877 2.67056 35.1988 3.25343 34.7724L5.96738 33.4667L6.62076 35.3762L6.89515 36.1783L4.84567 37.2681ZM12.0706 33.4921L8.87193 35.1449L8.34419 33.6023L7.96521 32.4937L12.1524 30.4266L12.0706 33.4921ZM43.2656 19.8145C43.2656 21.7119 42.8128 23.5015 42.0282 25.1024L33.3896 21.1786C33.2992 19.9942 32.6844 18.9573 31.7611 18.3115L34.7857 8.27023C39.6979 9.83278 43.2656 14.4154 43.2656 19.8145ZM18.91 19.8145C18.91 13.1317 24.373 7.69395 31.0878 7.69395C31.6101 7.69395 32.1213 7.73798 32.6271 7.8019L29.6686 17.6229C29.629 17.6217 29.5915 17.6108 29.5507 17.6108C27.4174 17.6108 25.682 19.3407 25.682 21.4674C25.682 23.5939 27.4174 25.3239 29.5507 25.3239C30.9853 25.3239 32.2249 24.5318 32.8938 23.3725L40.8734 26.9977C38.6531 29.9859 35.0996 31.9351 31.0877 31.9351C24.373 31.9351 18.91 26.4974 18.91 19.8145ZM31.2156 21.4674C31.2156 22.3786 30.4685 23.1202 29.5507 23.1202C28.6329 23.1202 27.8858 22.3786 27.8858 21.4674C27.8858 20.5561 28.6329 19.8145 29.5507 19.8145C30.4685 19.8145 31.2156 20.5561 31.2156 21.4674ZM5.53662 52.507C5.04853 52.9907 4.25841 52.9897 3.77148 52.5082C3.53673 52.2734 3.40786 51.9639 3.40786 51.6344C3.40786 51.306 3.53673 50.9964 3.77148 50.7639L5.75911 48.7838L7.51766 50.5347L5.53662 52.507ZM12.1764 60.2202C11.6883 60.7039 10.8971 60.705 10.4101 60.2213C10.1753 59.9866 10.0465 59.6771 10.0465 59.3475C10.0465 59.0192 10.1753 58.7095 10.4101 58.4771L12.399 56.4959L13.2309 57.3235L14.1587 58.2469L12.1764 60.2202ZM19.3694 53.0536C19.3683 53.0546 19.3672 53.0546 19.3661 53.0558L15.72 56.6919L14.888 55.8644L13.9602 54.941L17.603 51.3148C17.603 51.3148 17.603 51.3148 17.603 51.3137C17.6042 51.3126 17.6052 51.3126 17.6064 51.3116C17.689 51.2289 17.7408 51.1297 17.7915 51.0317C17.8058 51.0031 17.8334 50.9788 17.8455 50.9491C17.8797 50.8643 17.8851 50.7728 17.8984 50.6835C17.905 50.6327 17.9271 50.5855 17.9271 50.5336C17.9271 50.4597 17.9006 50.3882 17.8853 50.3154C17.8721 50.2492 17.8721 50.182 17.8467 50.1182C17.8048 50.0146 17.7332 49.9232 17.6583 49.8338C17.6373 49.8096 17.6296 49.7787 17.6065 49.7556C17.6065 49.7556 17.6065 49.7556 17.6053 49.7556C17.6042 49.7546 17.6042 49.7522 17.6031 49.7512L14.2832 46.4456C14.2479 46.4103 14.2027 46.396 14.1631 46.3663C14.1047 46.3211 14.0486 46.2793 13.9835 46.2473C13.9207 46.2164 13.8568 46.1977 13.7907 46.18C13.7202 46.1601 13.6519 46.1447 13.578 46.1392C13.5108 46.1348 13.448 46.1414 13.3809 46.1491C13.307 46.1579 13.2377 46.1679 13.166 46.191C13.0965 46.213 13.0349 46.2471 12.971 46.2835C12.9302 46.3067 12.884 46.3144 12.8454 46.3431L9.1817 49.0779L7.32062 47.2246L12.2768 42.2949L21.2858 51.1551L19.3694 53.0536ZM33.4569 38.5573C33.425 38.5529 33.3951 38.5651 33.3633 38.5629C33.2828 38.5585 33.2057 38.564 33.1253 38.5772C33.0625 38.5882 33.003 38.6003 32.9435 38.6213C32.873 38.6455 32.809 38.6786 32.744 38.7182C32.6822 38.7557 32.6261 38.7953 32.5721 38.8449C32.5456 38.868 32.5137 38.8791 32.4895 38.9055L22.783 49.5363L13.8413 40.7423L19.6944 34.92C20.1253 34.4903 20.1275 33.7927 19.6978 33.3608C19.4807 33.1438 19.1954 33.0368 18.91 33.038V33.037L14.3262 33.0645L14.3835 29.7435L20.7964 29.7986C23.41 32.4718 27.055 34.1389 31.0878 34.1389C31.9913 34.1389 32.8728 34.0453 33.7311 33.8855C33.8138 33.9516 33.8952 34.0188 33.9989 34.0607L38.9772 36.044L39.2923 37.6108L39.6603 39.4399L33.4569 38.5573ZM41.8057 38.9253L41.1589 35.7068L44.1472 33.4755L44.9295 34.5134L46.103 36.0714L41.8057 38.9253ZM49.5606 33.0766L47.8295 34.6986L45.9057 32.1445L47.6235 30.8278C47.9441 30.581 48.3485 30.4807 48.7452 30.5325C49.144 30.5886 49.4967 30.7969 49.7369 31.1197C50.1843 31.7225 50.1082 32.5632 49.5606 33.0766Z" fill="#212121"/>
<path d="M28.5462 38.867L24.1189 34.4596C23.6903 34.031 22.9938 34.031 22.5641 34.4596L18.1379 38.867C17.9308 39.0753 17.814 39.3551 17.814 39.6482C17.814 39.9414 17.9297 40.2223 18.1379 40.4295L22.5641 44.8369C22.779 45.0506 23.0611 45.1575 23.3421 45.1575C23.6231 45.1575 23.9051 45.0506 24.1189 44.8369L28.5462 40.4295C28.7533 40.2223 28.8712 39.9414 28.8712 39.6482C28.8712 39.3551 28.7544 39.0742 28.5462 38.867ZM23.3421 42.501L20.4772 39.6482L23.3421 36.7955L26.208 39.6482L23.3421 42.501Z" fill="#212121"/>
<path d="M35.9053 11.0316L35.373 13.1715C35.5196 13.2079 38.963 14.1048 38.963 17.6109H41.1668C41.1666 13.4435 37.7256 11.4845 35.9053 11.0316Z" fill="#212121"/>
<path d="M41.1667 19.8146H38.9629V22.0184H41.1667V19.8146Z" fill="#212121"/>
</g>
<defs>
<clipPath id="clip0">
<rect width="66.1111" height="66.1111" fill="white" transform="translate(0.444336 0.555542)"/>
</clipPath>
</defs>
</svg>
