<svg width="67" height="67" viewBox="0 0 67 67" fill="none" xmlns="http://www.w3.org/2000/svg">
<g clip-path="url(#clip0)">
<path d="M65.4354 32.1675C65.4318 14.7051 51.2727 0.552012 33.8098 0.555543C16.3473 0.559073 2.19422 14.7188 2.19775 32.1812C2.20078 45.9363 11.0957 58.1112 24.1991 62.2951C24.3242 62.3345 24.4544 62.3546 24.585 62.3541C24.8342 62.3536 25.0783 62.2871 25.2927 62.1605C25.5716 61.9955 25.7799 61.7332 25.8778 61.424L33.8627 36.1159C36.0457 36.1048 37.806 34.3258 37.7944 32.1433C37.7833 29.9603 36.0048 28.2 33.8219 28.2111C33.2348 28.2136 32.6552 28.3488 32.1276 28.6066L21.5789 18.0563C21.0553 17.5509 20.2215 17.5655 19.7162 18.0886C19.2229 18.5995 19.2229 19.4085 19.7162 19.9195L30.2594 30.4748C29.4503 32.1262 29.9129 34.1195 31.3675 35.2453L23.7593 59.3611C8.72352 53.8224 1.02455 37.1438 6.56323 22.108C12.1019 7.07223 28.7805 -0.626742 43.8163 4.91194C58.8521 10.4506 66.5511 27.1297 61.0124 42.165C58.3064 49.5109 52.7465 55.4516 45.5958 58.6378L44.7736 54.7656C44.6233 54.0539 43.9237 53.599 43.212 53.7498C42.9876 53.7977 42.7793 53.9031 42.6078 54.056L34.6808 61.133C34.1371 61.6167 34.0887 62.4495 34.5729 62.9932C34.7303 63.1697 34.932 63.3009 35.158 63.373L45.2785 66.6031C45.971 66.8255 46.713 66.4447 46.9354 65.7517C47.0061 65.5328 47.0177 65.2998 46.9702 65.0748L46.1622 61.2753C57.8645 56.3418 65.4626 44.867 65.4354 32.1675ZM33.8168 30.8501C34.5441 30.8501 35.1343 31.4402 35.1343 32.1675C35.1343 32.8954 34.5441 33.485 33.8168 33.485C33.089 33.485 32.4994 32.8954 32.4994 32.1675C32.4994 31.4402 33.089 30.8501 33.8168 30.8501ZM38.1561 61.5587L42.6683 57.5337L43.9137 63.4018L38.1561 61.5587Z" fill="#212121"/>
<path d="M32.499 7.13576V9.77068C32.499 10.4985 33.0887 11.0881 33.8165 11.0881C34.5438 11.0881 35.1339 10.4985 35.1339 9.77068V7.13576C35.1339 6.40843 34.5438 5.8183 33.8165 5.8183C33.0887 5.8183 32.499 6.40843 32.499 7.13576Z" fill="#2196F3"/>
<path d="M8.78523 30.85C8.0574 30.85 7.46777 31.4402 7.46777 32.1675C7.46777 32.8953 8.0574 33.485 8.78523 33.485H11.4202C12.148 33.485 12.7376 32.8953 12.7376 32.1675C12.7376 31.4402 12.148 30.85 11.4202 30.85H8.78523Z" fill="#2196F3"/>
<path d="M58.8479 33.485C59.5757 33.485 60.1654 32.8953 60.1654 32.1675C60.1654 31.4402 59.5757 30.85 58.8479 30.85H56.213C55.4856 30.85 54.8955 31.4402 54.8955 32.1675C54.8955 32.8953 55.4856 33.485 56.213 33.485H58.8479Z" fill="#2196F3"/>
</g>
<defs>
<clipPath id="clip0">
<rect width="66.1111" height="66.1111" fill="white" transform="translate(0.777344 0.555542)"/>
</clipPath>
</defs>
</svg>
