<svg width="67" height="67" viewBox="0 0 67 67" fill="none" xmlns="http://www.w3.org/2000/svg">
<g clip-path="url(#clip0)">
<path d="M30.9463 31.472H33.1488V41.3835H30.9463V31.472Z" fill="#2196F3"/>
<path d="M39.7563 35.8771H41.9589V41.3835H39.7563V35.8771Z" fill="#2196F3"/>
<path d="M22.1362 39.1809H24.3388V41.3835H22.1362V39.1809Z" fill="#2196F3"/>
<path d="M15.5283 38.0797H17.7309V41.3835H15.5283V38.0797Z" fill="#2196F3"/>
<path d="M3.41467 59.0039H56.2759C58.1004 59.0039 59.5797 57.5246 59.5797 55.7001V51.295C59.5797 49.4705 58.1004 47.9912 56.2759 47.9912H55.1746V20.5276L61.43 14.6018C62.8819 15.3175 64.6392 14.883 65.5894 13.5715C66.5401 12.2605 66.4067 10.4553 65.2743 9.29811C64.1418 8.14091 62.3404 7.9683 61.0084 8.88944C59.677 9.81111 59.2038 11.5582 59.8878 13.0257L55.1746 17.4937V14.9529C55.1746 13.1284 53.6953 11.6491 51.8708 11.6491H7.81977C5.99524 11.6491 4.51594 13.1284 4.51594 14.9529V47.9912H3.41467C1.59014 47.9912 0.11084 49.4705 0.11084 51.295V55.7001C0.11084 57.5246 1.59014 59.0039 3.41467 59.0039ZM62.8835 10.5478C63.4917 10.5478 63.9848 11.0409 63.9848 11.6491C63.9848 12.2573 63.4917 12.7504 62.8835 12.7504C62.2753 12.7504 61.7822 12.2573 61.7822 11.6491C61.7822 11.0409 62.2753 10.5478 62.8835 10.5478ZM6.71849 14.9529C6.71849 14.3447 7.21159 13.8516 7.81977 13.8516H51.8708C52.4789 13.8516 52.972 14.3447 52.972 14.9529V19.5779L50.7695 21.6708V17.1555C50.7695 16.5473 50.2764 16.0542 49.6682 16.0542H10.0223C9.41414 16.0542 8.92104 16.5473 8.92104 17.1555V44.6873C8.92104 45.2955 9.41414 45.7886 10.0223 45.7886H49.6682C50.2764 45.7886 50.7695 45.2955 50.7695 44.6873V24.7004L52.972 22.6134V47.9912H6.71849V14.9529ZM16.63 29.2695C15.1399 29.2652 13.8316 30.2578 13.4353 31.6941C13.039 33.1304 13.6525 34.6538 14.934 35.4141C16.2148 36.1745 17.8469 35.9836 18.9175 34.9474L22.7456 36.8682C23.1903 37.0908 23.7296 36.9865 24.0603 36.6149L32.1978 27.46L40.1971 33.4541C40.6263 33.7757 41.2253 33.7413 41.6146 33.3729L48.5669 26.7873V43.5861H11.1236V18.2567H48.5669V23.7529L40.7752 31.1316L32.7087 25.0843C32.2505 24.7412 31.6058 24.8058 31.2251 25.2333L22.9757 34.5151L19.8918 32.9728C19.9144 32.8406 19.9284 32.7072 19.9338 32.5733C19.9338 30.7488 18.4545 29.2695 16.63 29.2695ZM17.7312 32.5733C17.7312 33.1815 17.2381 33.6746 16.63 33.6746C16.0218 33.6746 15.5287 33.1815 15.5287 32.5733C15.5287 31.9651 16.0218 31.472 16.63 31.472C17.2381 31.472 17.7312 31.9651 17.7312 32.5733ZM24.3389 50.1937H35.3516V51.295C35.3516 51.9032 34.8585 52.3963 34.2504 52.3963H25.4402C24.832 52.3963 24.3389 51.9032 24.3389 51.295V50.1937ZM2.31339 51.295C2.31339 50.6868 2.80649 50.1937 3.41467 50.1937H22.1363V51.295C22.1363 53.1195 23.6156 54.5988 25.4402 54.5988H34.2504C36.0749 54.5988 37.5542 53.1195 37.5542 51.295V50.1937H56.2759C56.884 50.1937 57.3771 50.6868 57.3771 51.295V55.7001C57.3771 56.3083 56.884 56.8014 56.2759 56.8014H3.41467C2.80649 56.8014 2.31339 56.3083 2.31339 55.7001V51.295Z" fill="#212121"/>
</g>
<defs>
<clipPath id="clip0">
<rect width="66.1111" height="66.1111" fill="white" transform="translate(0.11084 0.555542)"/>
</clipPath>
</defs>
</svg>
